<svg width="55" height="55" viewBox="0 0 55 55" fill="none" xmlns="http://www.w3.org/2000/svg">
<path d="M48.125 29.7918C48.125 39.9171 38.8908 48.1252 27.5 48.1252C16.1092 48.1252 6.875 39.9171 6.875 29.7918M17.1875 13.9112C20.2212 12.3513 23.7433 11.4585 27.5 11.4585C31.2567 11.4585 34.7788 12.3513 37.8125 13.9112" stroke="#184175" stroke-width="5" stroke-linecap="round"/>
<path d="M6.875 29.7918V9.7261C6.875 7.7425 9.22402 6.69573 10.699 8.02206L17.1875 13.8567" stroke="#184175" stroke-width="5" stroke-linecap="round" stroke-linejoin="round"/>
<path d="M48.125 29.7918V9.7261C48.125 7.7425 45.7759 6.69573 44.301 8.02206L37.8125 13.8567" stroke="#184175" stroke-width="5" stroke-linecap="round" stroke-linejoin="round"/>
<path d="M34.375 27.5001C35.6407 27.5001 36.6667 26.4741 36.6667 25.2084C36.6667 23.9428 35.6407 22.9167 34.375 22.9167C33.1094 22.9167 32.0834 23.9428 32.0834 25.2084C32.0834 26.4741 33.1094 27.5001 34.375 27.5001Z" fill="#184175"/>
<path d="M20.625 27.5001C21.8907 27.5001 22.9167 26.4741 22.9167 25.2084C22.9167 23.9428 21.8907 22.9167 20.625 22.9167C19.3594 22.9167 18.3334 23.9428 18.3334 25.2084C18.3334 26.4741 19.3594 27.5001 20.625 27.5001Z" fill="#184175"/>
<path d="M27.5 34.3751C28.7657 34.3751 29.7917 33.3491 29.7917 32.0834C29.7917 30.8178 28.7657 29.7917 27.5 29.7917C26.2344 29.7917 25.2084 30.8178 25.2084 32.0834C25.2084 33.3491 26.2344 34.3751 27.5 34.3751Z" fill="#184175"/>
<path d="M18.3334 34.375L4.58337 35.5208" stroke="#184175" stroke-width="5" stroke-linecap="round" stroke-linejoin="round"/>
<path d="M21.7709 40.1042L8.02087 46.9792" stroke="#184175" stroke-width="5" stroke-linecap="round" stroke-linejoin="round"/>
<path d="M36.6667 34.375L50.4167 35.5208" stroke="#184175" stroke-width="5" stroke-linecap="round" stroke-linejoin="round"/>
<path d="M33.2292 40.1042L46.9792 46.9792" stroke="#184175" stroke-width="5" stroke-linecap="round" stroke-linejoin="round"/>
</svg>
