<svg width="29" height="29" viewBox="0 0 29 29" fill="none" xmlns="http://www.w3.org/2000/svg">
<path fill-rule="evenodd" clip-rule="evenodd" d="M14.5292 28.6473C16.3541 28.6473 18.1612 28.2879 19.8472 27.5895C21.5332 26.8912 23.0651 25.8676 24.3555 24.5772C25.6459 23.2868 26.6695 21.7548 27.3679 20.0688C28.0662 18.3829 28.4257 16.5758 28.4257 14.7509C28.4257 12.926 28.0662 11.119 27.3679 9.43298C26.6695 7.74699 25.6459 6.21506 24.3555 4.92466C23.0651 3.63426 21.5332 2.61065 19.8472 1.91229C18.1612 1.21393 16.3541 0.854492 14.5292 0.854492C10.8437 0.854492 7.30907 2.31858 4.70298 4.92466C2.0969 7.53074 0.632813 11.0654 0.632812 14.7509C0.632812 18.4365 2.0969 21.9711 4.70298 24.5772C7.30907 27.1833 10.8437 28.6473 14.5292 28.6473ZM14.171 20.3712L21.8913 11.107L19.5196 9.13058L12.8802 17.0963L9.44469 13.6593L7.26141 15.8426L11.8935 20.4747L13.0886 21.6698L14.171 20.3712Z" fill="white"/>
</svg>
