<svg width="88" height="88" viewBox="0 0 88 88" fill="none" xmlns="http://www.w3.org/2000/svg">
<path d="M37.711 54.092L37.6784 54.0158C37.1883 53.8818 36.7023 53.7331 36.2211 53.5699L36.1848 53.5554C31.1767 51.842 26.8298 48.6054 23.7524 44.2989C20.6751 39.9923 19.0214 34.8312 19.0229 29.5381C19.0212 23.0421 21.5109 16.7927 25.979 12.0773C30.447 7.36193 36.5533 4.53954 43.04 4.19151C49.5268 3.84347 55.9 5.9963 60.847 10.2066C65.7939 14.4168 68.9379 20.3639 69.6314 26.8228C69.7909 28.3164 68.5583 29.5381 67.0575 29.5381C65.5566 29.5381 64.3567 28.3128 64.1573 26.8264C63.6751 23.3182 62.2674 20.0016 60.0789 17.2175C57.8904 14.4335 55.0001 12.2823 51.7049 10.9853C48.4098 9.6882 44.8287 9.29195 41.3297 9.83725C37.8306 10.3825 34.5399 11.8497 31.7957 14.088C29.0515 16.3262 26.9528 19.2549 25.7153 22.5728C24.4778 25.8908 24.1461 29.4785 24.7543 32.9671C25.3625 36.4557 26.8887 39.7195 29.1761 42.4229C31.4634 45.1264 34.4293 47.172 37.769 48.3496C38.4418 46.8289 39.6169 45.5856 41.0972 44.8283C42.5776 44.0709 44.2733 43.8453 45.9002 44.1895C47.5271 44.5337 48.9862 45.4266 50.0331 46.7186C51.0799 48.0106 51.6508 49.6231 51.6501 51.286C51.6501 53.4539 50.7003 55.3971 49.1958 56.7239C47.8718 57.8934 46.1662 58.5393 44.3996 58.5402C42.9694 58.5452 41.5699 58.1251 40.379 57.3331C39.188 56.5411 38.2594 55.4129 37.711 54.092ZM29.8877 56.7275C27.2158 55.2997 24.769 53.4857 22.6264 51.344C20.6402 51.5751 18.8082 52.5276 17.4782 54.0207C16.1482 55.5137 15.4129 57.4433 15.4121 59.4428V61.5382C15.4121 64.772 16.5649 67.9042 18.6676 70.3657C24.3447 77.0144 32.9946 80.2989 44.3996 80.2989C55.8047 80.2989 64.4582 77.0144 70.1462 70.3657C72.2538 67.9032 73.4122 64.7687 73.4125 61.5274V59.4428C73.4125 57.2808 72.5541 55.2072 71.026 53.6777C69.4979 52.1482 67.425 51.2879 65.263 51.286H57.088C57.088 53.2364 56.653 55.078 55.8663 56.7239H65.263C65.9828 56.7258 66.6725 57.0131 67.1809 57.5228C67.6892 58.0325 67.9747 58.723 67.9747 59.4428V61.5274C67.9752 63.4721 67.281 65.3531 66.017 66.8311C61.4601 72.153 54.3292 74.8574 44.3996 74.8574C34.4701 74.8574 27.3464 72.153 22.804 66.8347C21.5409 65.3577 20.8466 63.4781 20.8464 61.5346V59.4428C20.8464 58.7217 21.1328 58.0302 21.6427 57.5203C22.1526 57.0104 22.8442 56.7239 23.5653 56.7239L29.8877 56.7275ZM29.8986 29.5381C29.8993 27.0369 30.5469 24.5784 31.7786 22.4014C33.0102 20.2244 34.7841 18.403 36.9277 17.1142C39.0713 15.8254 41.5119 15.113 44.0122 15.0461C46.5126 14.9793 48.9877 15.5604 51.1971 16.7329C53.4065 17.9053 55.2751 19.6294 56.6213 21.7374C57.9675 23.8455 58.7455 26.266 58.8797 28.7636C59.014 31.2612 58.4999 33.7511 57.3875 35.9914C56.275 38.2316 54.6021 40.146 52.5311 41.5486C50.2494 39.6442 47.3716 38.6011 44.3996 38.6013C46.8033 38.6013 49.1086 37.6464 50.8082 35.9467C52.5079 34.2471 53.4628 31.9418 53.4628 29.5381C53.4628 27.1344 52.5079 24.8292 50.8082 23.1295C49.1086 21.4299 46.8033 20.475 44.3996 20.475C41.9959 20.475 39.6907 21.4299 37.991 23.1295C36.2914 24.8292 35.3365 27.1344 35.3365 29.5381C35.3365 31.9418 36.2914 34.2471 37.991 35.9467C39.6907 37.6464 41.9959 38.6013 44.3996 38.6013C41.3037 38.6013 38.4687 39.7106 36.2718 41.5486C34.3065 40.2223 32.6974 38.4332 31.5861 36.3389C30.4747 34.2445 29.8952 31.9091 29.8986 29.5381Z" fill="white"/>
</svg>
