<svg width="88" height="88" viewBox="0 0 88 88" fill="none" xmlns="http://www.w3.org/2000/svg">
<g clip-path="url(#clip0_36_1772)">
<path d="M44.7759 0.170826C46.2006 0.170826 47.6036 0.26327 48.9087 0.480786C50.1945 0.646418 51.463 0.926678 52.6989 1.31822C53.9315 1.68799 55.1532 2.16472 56.364 2.74838C57.544 3.30848 58.7567 3.99366 59.9693 4.73864C62.0194 6.04374 64.0368 7.09868 66.0924 7.94156C70.1379 9.56444 74.4174 10.5283 78.7681 10.7964C80.9686 10.9596 83.2471 11.043 85.6035 11.0466V32.7981C85.6035 36.9273 85.076 40.8534 84.0211 44.5765C83.0075 48.2536 81.5676 51.7996 79.7306 55.1423C77.9015 58.4805 75.7369 61.6235 73.2704 64.5227C70.7676 67.4891 68.0563 70.2731 65.1571 72.8535C62.217 75.4383 59.1246 77.8443 55.8963 80.0587C52.6626 82.3064 49.4108 84.3782 46.1408 86.2742L44.8357 87.0518L43.5306 86.2742C40.1763 84.3328 36.9001 82.2593 33.7098 80.0587C30.4643 77.8681 27.3703 75.4609 24.4491 72.8535C21.5518 70.2729 18.8423 67.4889 16.3412 64.5227C13.883 61.6099 11.7089 58.4688 9.84838 55.1423C8.04442 51.784 6.60603 48.2418 5.55789 44.5765C4.50328 40.74 3.97999 36.7769 4.00266 32.7981V11.0466C6.35907 11.043 8.63936 10.9596 10.8435 10.7964C13.0172 10.6487 15.1766 10.3379 17.3037 9.86656C19.3864 9.39891 21.4691 8.77899 23.5192 7.94156C25.646 7.08186 27.6855 6.02025 29.6096 4.77127C32.0023 3.21604 34.4276 2.06865 36.8203 1.31278C39.3973 0.523687 42.081 0.13847 44.7759 0.170826ZM80.133 16.392C76.0168 16.1906 71.939 15.5024 67.9847 14.3419C64.0528 13.166 60.307 11.4396 56.8588 9.21402C55.0698 8.04274 53.1285 7.12241 51.0893 6.47877C49.051 5.86406 46.9319 5.55976 44.8031 5.57608C42.6584 5.56301 40.5236 5.86719 38.4679 6.47877C36.4263 7.10323 34.4878 8.02486 32.7147 9.21402C29.2593 11.4495 25.5041 13.1833 21.5616 14.3637C17.7079 15.4839 13.6676 16.1691 9.44054 16.4192V32.8253C9.44054 36.4252 9.9082 39.8837 10.8435 43.2008C11.7972 46.4941 13.1102 49.6727 14.7588 52.679C16.4278 55.7163 18.3952 58.5799 20.6317 61.2273C22.8993 63.8973 25.3191 66.3824 27.9293 68.7425C30.5395 71.1025 33.2748 73.2886 36.1351 75.3006C39.0244 77.3162 41.9137 79.1596 44.8031 80.8309C47.7611 79.1118 50.644 77.2667 53.4439 75.3006C56.3265 73.2941 59.0765 71.1035 61.6768 68.7425C64.287 66.3824 66.7123 63.8973 68.9799 61.2273C71.2164 58.5799 73.1838 55.7163 74.8528 52.679C76.4931 49.6759 77.7865 46.4961 78.7082 43.2008C79.673 39.8274 80.1527 36.3339 80.133 32.8253V16.392Z" fill="white"/>
<path fill-rule="evenodd" clip-rule="evenodd" d="M65.0477 25.7779L62.655 23.7224L60.4472 23.9127L36.7381 51.9069L28.6628 40.3786L26.4877 40.0089L23.9699 41.8088L23.5947 43.984L33.9756 58.8076L35.1557 59.4602L37.6408 59.6124L38.9132 59.0578L65.2054 27.9803L65.0477 25.7779Z" fill="white"/>
</g>
<defs>
<clipPath id="clip0_36_1772">
<rect width="87.0061" height="87.0061" fill="white" transform="translate(0.897461 0.170898)"/>
</clipPath>
</defs>
</svg>
