<svg width="88" height="88" viewBox="0 0 88 88" fill="none" xmlns="http://www.w3.org/2000/svg">
<path fill-rule="evenodd" clip-rule="evenodd" d="M48.8666 5.8314C51.1578 3.08346 55.6205 4.96134 55.258 8.52134L52.6985 33.5283H73.4024C74.0912 33.5286 74.7657 33.7251 75.3469 34.0949C75.9281 34.4646 76.392 34.9923 76.6841 35.6161C76.9762 36.24 77.0846 36.9341 76.9965 37.6173C76.9083 38.3005 76.6274 38.9445 76.1865 39.4737L39.934 82.9768C37.6429 85.7247 33.1802 83.8468 33.5427 80.2868L36.1021 55.2799H15.3983C14.7095 55.2796 14.0349 55.0831 13.4537 54.7133C12.8725 54.3436 12.4087 53.8159 12.1166 53.192C11.8244 52.5682 11.7161 51.8741 11.8042 51.1909C11.8923 50.5077 12.1733 49.8637 12.6141 49.3344L48.8666 5.8314ZM23.1382 48.0293H42.5261C42.7287 48.0293 42.9291 48.0718 43.1144 48.154C43.2996 48.2363 43.4656 48.3564 43.6015 48.5067C43.7375 48.657 43.8404 48.8341 43.9037 49.0266C43.967 49.2192 43.9892 49.4228 43.9689 49.6245L41.9642 69.2189L65.6624 40.7788H46.2746C46.0719 40.7788 45.8715 40.7364 45.6863 40.6541C45.501 40.5719 45.3351 40.4518 45.1992 40.3015C45.0632 40.1512 44.9603 39.9741 44.897 39.7816C44.8337 39.589 44.8115 39.3854 44.8317 39.1837L46.8365 19.5929L23.1382 48.0293Z" fill="white"/>
</svg>
