<svg width="88" height="88" viewBox="0 0 88 88" fill="none" xmlns="http://www.w3.org/2000/svg">
<path d="M77.028 69.1451H24.4618C17.2113 69.1451 11.7734 63.7073 11.7734 56.4568C11.7734 49.2062 17.2113 43.7684 24.4618 43.7684H35.3376H64.3396C71.5901 43.7684 77.028 38.3305 77.028 31.08C77.028 23.8295 71.5901 18.3916 64.3396 18.3916H31.7123" stroke="white" stroke-width="7.25051" stroke-linecap="round" stroke-linejoin="round"/>
<path d="M67.9648 78.2085L77.028 69.1454L67.9648 60.0823" stroke="white" stroke-width="7.25051" stroke-linecap="round" stroke-linejoin="round"/>
<path d="M22.6488 9.32857C17.6434 9.32857 13.5856 13.3863 13.5856 18.3917C13.5856 23.3971 17.6434 27.4548 22.6488 27.4548C27.6542 27.4548 31.7119 23.3971 31.7119 18.3917C31.7119 13.3863 27.6542 9.32857 22.6488 9.32857Z" stroke="white" stroke-width="7.25051"/>
</svg>
