<svg width="55" height="55" viewBox="0 0 55 55" fill="none" xmlns="http://www.w3.org/2000/svg">
<mask id="mask0_41_121" style="mask-type:luminance" maskUnits="userSpaceOnUse" x="0" y="0" width="55" height="55">
<path d="M0 0H55V55H0V0Z" fill="white"/>
</mask>
<g mask="url(#mask0_41_121)">
<path d="M19.3909 13.0006C19.9753 13.0006 20.5358 12.7685 20.949 12.3553C21.3622 11.942 21.5944 11.3816 21.5944 10.7972C21.5944 10.2128 21.3622 9.65235 20.949 9.23912C20.5358 8.8259 19.9753 8.59375 19.3909 8.59375C18.8065 8.59375 18.2461 8.8259 17.8329 9.23912C17.4196 9.65235 17.1875 10.2128 17.1875 10.7972C17.1875 11.3816 17.4196 11.942 17.8329 12.3553C18.2461 12.7685 18.8065 13.0006 19.3909 13.0006Z" fill="#184175"/>
<path d="M6.05859 19.3411C5.20653 18.5663 4.54358 17.6064 4.12076 16.5352C3.69793 15.464 3.52651 14.31 3.61969 13.1622L3.62141 13.145C3.7421 11.7459 4.24908 10.4079 5.08579 9.28015C5.9225 8.1524 7.05604 7.27925 8.36 6.75809C9.34631 4.80638 10.8349 3.15272 12.6725 1.96732C14.5101 0.781921 16.6304 0.107586 18.8152 0.0137166C25.1316 -0.290502 30.4855 4.1645 31.5958 10.1114L36.4409 33.7322L46.5678 32.7662L46.5919 32.7645C49.1459 32.5582 51.5161 34.5554 51.4766 37.3054V41.0368C51.4766 45.8837 47.5561 49.8368 42.6766 49.8368H29.15V50.6962H31.2984C32.0031 50.6962 32.5875 51.2806 32.5875 51.9853C32.5875 52.69 32.0031 53.2743 31.2984 53.2743H14.9703C14.6284 53.2743 14.3006 53.1385 14.0588 52.8968C13.8171 52.655 13.6813 52.3272 13.6813 51.9853C13.6813 51.6434 13.8171 51.3155 14.0588 51.0738C14.3006 50.832 14.6284 50.6962 14.9703 50.6962H19.6969L20.0595 49.4037C10.6081 47.465 3.4375 39.2562 3.4375 29.2978C3.4375 25.7279 4.38625 22.3162 6.05859 19.3411ZM11.2028 16.732C11.1942 17.5347 10.9278 18.3236 10.4156 18.9681C9.99841 19.5096 9.61387 20.0755 9.26406 20.6628C7.70276 23.2727 6.8772 26.2565 6.875 29.2978C6.875 38.7509 14.6953 46.3993 24.3547 46.3993H42.6766C45.65 46.3993 48.0391 43.9931 48.0391 41.0368V37.2728C48.0414 37.1225 48.012 36.9734 47.953 36.8353C47.8939 36.6971 47.8064 36.5729 47.6961 36.4708C47.5859 36.3686 47.4554 36.2908 47.3131 36.2425C47.1708 36.1941 47.02 36.1762 46.8703 36.19L35.4337 37.2814L35.6263 38.2164L36.5939 42.9257C36.6226 43.0701 36.6369 43.2139 36.6369 43.3572C36.6382 43.6298 36.5856 43.9001 36.4821 44.1524C36.3786 44.4047 36.2262 44.634 36.0337 44.8271C35.8412 45.0202 35.6124 45.1734 35.3605 45.2777C35.1086 45.3821 34.8385 45.4356 34.5658 45.4351H34.5091L34.4523 45.4265C24.7672 44.134 17.2923 35.8342 17.2923 25.7898V25.7726C17.2923 25.0943 17.3279 24.4148 17.3989 23.7342C17.4195 23.4764 17.4591 23.1979 17.5192 22.9332H17.5278C17.8911 21.2181 18.8325 19.6799 20.1945 18.576C21.5565 17.4721 23.2564 16.8697 25.0095 16.8695C26.7604 16.8669 28.4591 17.4651 29.822 18.5642L28.2219 10.7697C27.8289 8.63621 26.6749 6.71795 24.9742 5.37128C23.2735 4.02461 21.1417 3.34111 18.975 3.44778C17.1862 3.52162 15.4616 4.13512 14.0281 5.20761C12.5945 6.28009 11.5191 7.76132 10.9433 9.45653C13.2172 9.38778 15.3261 10.615 15.9517 12.5451C16.0588 12.8535 16.1134 13.1777 16.1133 13.5042C16.1133 15.5048 14.1952 16.8472 12.2203 16.8472C11.8697 16.8472 11.5305 16.8088 11.2028 16.732ZM19.2345 23.1722C19.8271 26.8675 21.5507 30.2883 24.168 32.9634C26.7853 35.6386 30.1676 37.4366 33.8491 38.1098L33.7219 37.4859V37.5839L30.69 22.8043C30.3242 21.5831 29.5735 20.5128 28.5499 19.753C27.5262 18.9932 26.2844 18.5847 25.0095 18.5882C22.2183 18.5882 19.8533 20.5132 19.2345 23.1722ZM26.5719 50.6962V49.8368H24.3547C23.7428 49.8368 23.1372 49.8116 22.538 49.7612L22.275 50.6962H26.5719ZM14.3172 13.0797C13.9872 12.045 12.6998 11.1168 10.9777 11.1736C9.23484 11.2337 8.01969 12.3561 7.90109 13.4904C7.83234 14.2157 8.17266 14.9393 8.85156 15.455C8.90313 15.1061 9.06297 14.7915 9.28984 14.544L9.88281 13.8943L10.5187 14.5011C10.902 14.8672 11.507 15.1284 12.2203 15.1284C13.5867 15.1284 14.3945 14.2484 14.3945 13.5042C14.3945 13.3678 14.3712 13.2323 14.3258 13.1037L14.3206 13.0917L14.3172 13.0797Z" fill="#184175"/>
</g>
</svg>
