<svg width="55" height="55" viewBox="0 0 55 55" fill="none" xmlns="http://www.w3.org/2000/svg">
<path d="M51.5002 26.8555L47.9725 7.94929C47.8863 7.48844 47.7067 7.05009 47.4448 6.66121C47.183 6.27233 46.8443 5.94113 46.4497 5.68798C46.0551 5.43482 45.6128 5.26507 45.1502 5.18916C44.6875 5.11325 44.2142 5.13278 43.7594 5.24655L43.6928 5.26589L32.4092 8.59382H22.5908L11.3073 5.27663L11.2407 5.25729C10.7858 5.14352 10.3125 5.12399 9.84988 5.1999C9.38723 5.27581 8.94499 5.44557 8.55037 5.69872C8.15575 5.95187 7.81709 6.28307 7.55521 6.67195C7.29333 7.06084 7.11377 7.49918 7.02757 7.96003L3.49983 26.8555C3.34898 27.6123 3.46095 28.3979 3.81725 29.0823C4.17354 29.7668 4.7528 30.3091 5.45921 30.6196C5.91169 30.8268 6.40314 30.9352 6.90081 30.9376C7.49648 30.9371 8.08112 30.7768 8.59378 30.4735V39.5313C8.59378 41.8105 9.49919 43.9964 11.1108 45.608C12.7225 47.2197 14.9083 48.1251 17.1875 48.1251H37.8125C40.0917 48.1251 42.2776 47.2197 43.8892 45.608C45.5009 43.9964 46.4063 41.8105 46.4063 39.5313V30.4757C46.9183 30.7786 47.5022 30.9388 48.0971 30.9397C48.5953 30.9383 49.0875 30.8307 49.5408 30.6239C50.2481 30.3132 50.828 29.7702 51.1843 29.0849C51.5407 28.3995 51.6521 27.6129 51.5002 26.8555ZM6.87503 27.5001L10.4049 8.59382L19.4434 11.2514L6.87503 27.5001ZM37.8125 44.6876H29.2188V41.9612L32.1535 39.0286C32.4761 38.7061 32.6572 38.2687 32.6572 37.8126C32.6572 37.3565 32.4761 36.9191 32.1535 36.5966C31.831 36.274 31.3936 36.0929 30.9375 36.0929C30.4814 36.0929 30.044 36.274 29.7215 36.5966L27.5 38.8202L25.2785 36.5966C24.956 36.274 24.5186 36.0929 24.0625 36.0929C23.6064 36.0929 23.169 36.274 22.8465 36.5966C22.524 36.9191 22.3428 37.3565 22.3428 37.8126C22.3428 38.2687 22.524 38.7061 22.8465 39.0286L25.7813 41.9612V44.6876H17.1875C15.82 44.6876 14.5085 44.1443 13.5415 43.1773C12.5745 42.2104 12.0313 40.8988 12.0313 39.5313V26.4495L23.186 12.0313H31.8119L42.9688 26.4495V39.5313C42.9688 40.8988 42.4255 42.2104 41.4585 43.1773C40.4916 44.1443 39.18 44.6876 37.8125 44.6876ZM48.125 27.5001L35.5567 11.2514L44.5951 8.59382L48.125 27.5001ZM22.3438 30.0782C22.3438 30.5881 22.1926 31.0866 21.9093 31.5105C21.626 31.9345 21.2233 32.2649 20.7523 32.4601C20.2812 32.6552 19.7628 32.7063 19.2627 32.6068C18.7626 32.5073 18.3032 32.2618 17.9426 31.9012C17.5821 31.5406 17.3365 31.0813 17.2371 30.5812C17.1376 30.0811 17.1886 29.5627 17.3838 29.0916C17.5789 28.6205 17.9094 28.2178 18.3333 27.9346C18.7573 27.6513 19.2557 27.5001 19.7657 27.5001C20.4494 27.5001 21.1052 27.7717 21.5887 28.2552C22.0722 28.7387 22.3438 29.3944 22.3438 30.0782ZM37.8125 30.0782C37.8125 30.5881 37.6613 31.0866 37.378 31.5105C37.0947 31.9345 36.6921 32.2649 36.221 32.4601C35.7499 32.6552 35.2315 32.7063 34.7314 32.6068C34.2313 32.5073 33.772 32.2618 33.4114 31.9012C33.0508 31.5406 32.8053 31.0813 32.7058 30.5812C32.6063 30.0811 32.6574 29.5627 32.8525 29.0916C33.0477 28.6205 33.3781 28.2178 33.8021 27.9346C34.226 27.6513 34.7245 27.5001 35.2344 27.5001C35.9182 27.5001 36.5739 27.7717 37.0574 28.2552C37.5409 28.7387 37.8125 29.3944 37.8125 30.0782Z" fill="#184175"/>
</svg>
