<svg width="1140" height="92" viewBox="0 0 1140 92" fill="none" xmlns="http://www.w3.org/2000/svg">
<line x1="343" y1="68.5" x2="1140" y2="68.4999" stroke="#EAEEFF"/>
<line x1="-4.37114e-08" y1="68.5" x2="260" y2="68.5" stroke="#EAEEFF"/>
<path d="M283.786 0.00022048L281.926 3.15041L276.87 11.7194C272.832 10.7581 269.073 10.5383 264.663 11.7472L255.474 2.59891L253.628 0.765266L252.271 2.98518C244.323 15.9248 243.177 26.6244 247.442 34.324C249.57 38.1658 252.929 41.104 257.162 43.1827C256.19 50.4531 257.191 58.9623 259.511 67.1455L259.938 68.6417H281.355C281.359 71.5977 282.059 74.4331 283.277 76.9969C287.289 85.4438 296.436 91.2915 305.017 91.9149C314.42 92.5977 322.639 89.1044 329.299 83.8766C335.96 78.6492 341.15 71.6963 344.847 65.1394C350.817 54.5501 349.982 43.6517 344.689 35.7509C339.727 28.344 330.934 23.5664 320.682 23.6522C319.999 23.658 319.311 23.6853 318.615 23.7349C311.226 24.2622 303.035 27.3709 294.76 33.6554C293.665 32.9064 292.551 32.1846 291.419 31.4906C293.432 24.6315 292.047 15.4256 285.516 3.22607L283.787 0L283.786 0.00022048ZM254.489 7.4314L262.61 15.5178L263.506 16.4072L264.698 16.0212C269.546 14.4498 272.636 14.7364 277.324 16.0419L278.846 16.4694L279.646 15.1044L283.538 8.52073C286.17 14.0408 287.54 18.6602 287.981 22.5289C281.511 19.6562 277.674 23.4109 277.083 29.4022C282.319 31.9303 285.667 31.4414 287.788 28.9815C287.527 30.2853 287.131 31.467 286.624 32.5316C284.04 37.9492 278.361 41.0219 272.13 42.7278C261.883 41.9557 254.338 38.271 251.044 32.3249C247.928 26.6996 248.285 18.4838 254.489 7.4314ZM260.413 21.5433C258.616 21.5333 256.487 22.1934 254.048 23.7074C255.593 30.1275 259.207 33.2413 267.157 29.402C266.706 24.8338 264.366 21.564 260.413 21.5428L260.413 21.5433ZM320.716 27.7753C329.679 27.6928 337.095 31.8233 341.265 38.0465C345.712 44.685 346.566 53.6972 341.258 63.1125C337.763 69.3121 332.834 75.8604 326.757 80.63C320.681 85.3994 313.549 88.3974 305.32 87.7996C298.47 87.3019 290.246 82.0741 286.996 75.2319C285.372 71.811 284.892 68.0674 286.191 64.0642C287.489 60.0609 290.638 55.7107 296.633 51.4003C301.335 48.0198 304.586 49.0178 305.988 50.6007C306.689 51.392 306.989 52.369 306.78 53.4614C306.572 54.5541 305.827 55.8474 303.997 57.0535C298.471 60.696 295.921 64.8698 296.172 68.8142C296.423 72.7585 299.494 75.7719 303.343 76.9764C311.042 79.3858 322.475 75.1247 327.66 59.8247L323.754 58.5011C322.964 60.8322 322.039 62.8109 321.033 64.5263H301.759C302.691 63.2729 304.113 61.9113 306.264 60.4933C308.825 58.8057 310.379 56.5726 310.825 54.2406C311.27 51.9088 310.576 49.559 309.075 47.8639C306.072 44.4739 300.083 43.8483 294.23 48.0569C287.721 52.7365 283.91 57.7579 282.278 62.7893C282.095 63.3585 281.939 63.9359 281.81 64.5195H263.107C261.344 57.6901 260.707 50.7187 261.274 44.8516C264.582 45.9391 268.259 46.6098 272.186 46.8785L272.523 46.899L272.854 46.8165C279.471 45.062 286.255 41.7455 289.813 35.3315C291.113 36.139 292.388 36.9851 293.637 37.8684L294.897 38.7575L296.11 37.7994C304.268 31.2956 312.114 28.3294 318.904 27.845C319.515 27.8015 320.118 27.7817 320.716 27.7761V27.7753ZM300.291 68.6483H317.981C313.45 73.4254 308.129 74.1536 304.569 73.0396C301.965 72.2249 300.459 70.566 300.291 68.6485V68.6483Z" fill="white" fill-opacity="0.29"/>
</svg>
