<svg width="84" height="77" viewBox="0 0 84 77" fill="none" xmlns="http://www.w3.org/2000/svg">
<path d="M67.3952 26.3818H59.5813M59.5813 26.3818H51.7673M59.5813 26.3818V18.5679M59.5813 26.3818V34.1958" stroke="#1CA058" stroke-width="5.86047" stroke-linecap="round"/>
<path d="M42 12.9965L39.859 14.9969C40.1331 15.2902 40.4646 15.5242 40.8329 15.6841C41.2012 15.844 41.5985 15.9265 42 15.9265C42.4015 15.9265 42.7988 15.844 43.1671 15.6841C43.5354 15.5242 43.8669 15.2902 44.141 14.9969L42 12.9965ZM5.47758 44.6743C5.67089 45.0149 5.93052 45.3133 6.24113 45.5519C6.55174 45.7904 6.90702 45.9643 7.28598 46.0632C7.66493 46.1621 8.05987 46.1841 8.44745 46.1277C8.83503 46.0714 9.20739 45.938 9.54251 45.7353C9.87763 45.5326 10.1687 45.2648 10.3986 44.9476C10.6284 44.6305 10.7924 44.2706 10.8807 43.889C10.9691 43.5074 10.98 43.112 10.913 42.7262C10.8459 42.3403 10.7022 41.9718 10.4902 41.6424L5.47758 44.6743ZM20.6562 54.3987C20.3914 54.1085 20.071 53.8744 19.714 53.7105C19.3569 53.5465 18.9706 53.4561 18.5779 53.4445C18.1852 53.4328 17.7942 53.5003 17.4281 53.6429C17.062 53.7854 16.7283 54.0001 16.4468 54.2742C16.1654 54.5483 15.9419 54.8762 15.7897 55.2385C15.6376 55.6007 15.5598 55.9898 15.561 56.3826C15.5623 56.7755 15.6425 57.1641 15.797 57.5254C15.9514 57.8866 16.1769 58.2131 16.4601 58.4854L20.6562 54.3987ZM5.86047 27.6242C5.86047 16.2744 10.8145 9.26142 16.9407 6.85863C23.0551 4.46366 31.6074 6.17491 39.859 14.9969L44.141 10.9961C34.8112 1.0177 23.8287 -2.13132 14.8035 1.40059C5.79014 4.93249 0 14.6296 0 27.6242H5.86047ZM55.7135 69.2023C61.5466 64.4709 68.5323 58.1299 74.088 51.0465C79.5851 44.0374 84 35.8914 84 27.6164H78.1395C78.1395 33.9144 74.7014 40.7595 69.4739 47.4287C64.301 54.0276 57.6904 60.056 52.0253 64.6506L55.7135 69.2023ZM84 27.6164C84 14.6257 78.2099 4.92859 69.1926 1.40059C60.1674 -2.13523 49.1888 1.00989 39.859 10.9922L44.141 14.9969C52.3926 6.17491 60.9449 4.45975 67.0593 6.85473C73.1855 9.25361 78.1395 16.2705 78.1395 27.6164H84ZM28.2865 69.2062C33.2484 73.2382 36.6943 76.1957 42 76.1957V70.3353C39.1753 70.3353 37.4171 69.0694 31.9747 64.6545L28.2865 69.2062ZM52.0253 64.6506C46.5829 69.0655 44.8247 70.3353 42 70.3353V76.1957C47.3057 76.1957 50.7555 73.2382 55.7174 69.2062L52.0253 64.6506ZM10.4941 41.6424C7.56781 36.8134 5.86047 32.0664 5.86047 27.6242H0C0 33.5316 2.25042 39.3451 5.47758 44.6743L10.4941 41.6424ZM31.9747 64.6545C28.0083 61.4558 24.2292 58.0316 20.6562 54.3987L16.4601 58.4854C20.1889 62.2861 24.1403 65.8658 28.2865 69.2062L31.9747 64.6545Z" fill="#1CA058"/>
</svg>
