<svg width="85" height="85" viewBox="0 0 85 85" fill="none" xmlns="http://www.w3.org/2000/svg">
<path d="M51.4163 11.099C56.8171 5.70701 59.5154 3 62.8738 3C66.2279 3 68.9305 5.70261 74.3313 11.099C79.7321 16.5087 82.4347 19.2113 82.4347 22.5653C82.4347 25.9238 79.7321 28.622 74.3357 34.0228M34.2279 74.1306C28.8227 79.527 26.1245 82.2297 22.7616 82.2297C19.4075 82.2297 16.7049 79.527 11.3041 74.1306C5.90769 68.721 3.20508 66.0184 3.20508 62.6643C3.20508 59.3059 5.90769 56.6077 11.3041 51.2024M19.9005 42.6148L11.3085 34.0184C5.90769 28.6176 3.20508 25.9238 3.20508 22.5653C3.20508 19.2069 5.90769 16.5087 11.3041 11.1078C16.7137 5.70261 19.4163 3 22.7704 3C26.1289 3 28.8271 5.70261 34.2279 11.099L42.8199 19.6999M19.9005 42.6148L42.8199 19.6999M19.9005 42.6148L42.8199 65.5342L65.7393 42.6148M42.8199 19.6999L65.7393 42.6148M65.7393 42.6148L74.3313 51.2112C79.7321 56.6121 82.4347 59.3103 82.4347 62.6687C82.4347 66.0228 79.7321 68.7254 74.3357 74.1262C68.9261 79.527 66.2235 82.2297 62.8694 82.2297C59.511 82.2297 56.8127 79.527 51.4075 74.1306L42.8199 65.5298" stroke="#1CA058" stroke-width="4.55343" stroke-linecap="round" stroke-linejoin="round"/>
</svg>
