<svg width="49" height="49" viewBox="0 0 49 49" fill="none" xmlns="http://www.w3.org/2000/svg">
<path d="M43.8634 16.2232C43.5222 16.0886 43.1588 16.0199 42.7922 16.0208H42.7538C40.8178 16.0497 38.6467 17.8699 37.5074 20.6227C36.1416 23.9161 36.7703 27.2856 38.9222 28.1518C39.263 28.2865 39.6261 28.3552 39.9924 28.3542C41.938 28.3542 44.1388 26.5234 45.2877 23.7523C46.644 20.4589 46.0057 17.0894 43.8634 16.2232ZM31.3722 29.0749C28.7039 24.6301 27.5521 22.9583 24.4999 22.9583C21.4476 22.9583 20.2863 24.6407 17.6179 29.0749C15.3336 32.8674 10.7168 33.1834 9.56502 36.4046C9.33133 36.9945 9.21398 37.6245 9.21948 38.2594C9.21948 40.8792 11.2159 43 13.6731 43C16.7253 43 20.8813 40.5536 24.5095 40.5536C28.1376 40.5536 32.2745 43 35.3267 43C37.7838 43 39.7707 40.8802 39.7707 38.2594C39.7729 37.6239 39.6523 36.994 39.4155 36.4046C38.2638 33.1719 33.6566 32.8674 31.3722 29.0749ZM18.406 18.7188C18.5345 18.7189 18.6628 18.7092 18.7899 18.6898C21.0176 18.3651 22.4084 15.2664 21.9036 11.7668C21.4284 8.46763 19.4339 6 17.3482 6C17.2197 5.99989 17.0914 6.00955 16.9643 6.02891C14.7366 6.35362 13.3458 9.45237 13.8506 12.952C14.3257 16.2415 16.3203 18.7188 18.406 18.7188ZM35.1462 12.952C35.6511 9.45237 34.2603 6.35362 32.0326 6.02891C31.9055 6.00955 31.7772 5.99989 31.6486 6C29.563 6 27.5723 8.46763 27.0962 11.7668C26.5913 15.2664 27.9821 18.3651 30.2099 18.6898C30.3369 18.7092 30.4653 18.7189 30.5938 18.7188C32.6795 18.7188 34.674 16.2415 35.1462 12.952ZM10.0804 28.1518C12.2295 27.2846 12.8572 23.9122 11.4933 20.6227C10.3454 17.8516 8.1464 16.0208 6.20372 16.0208C5.83745 16.0198 5.47431 16.0885 5.13351 16.2232C2.98447 17.0904 2.35674 20.4628 3.72065 23.7523C4.8686 26.5234 7.06756 28.3542 9.01024 28.3542C9.37651 28.3552 9.73965 28.2865 10.0804 28.1518Z" stroke="white" stroke-width="3" stroke-miterlimit="10"/>
</svg>
